# xmcd
#
# Track frame offsets: 
#        183
#        33633
#        65658
#        86733
#        112083
#        132558
#        160383
#        173283
#        194583
#        208833
#        237483
#
# Disc length: 3306 seconds
#
# Revision: 2
# Processed by: cddbd v1.5.2PL0 Copyright (c) Steve Scherf et al.
# Submitted via: ExactAudioCopy v1.3
#
DISCID=a70ce80b
DTITLE=Claudio Abbado - Il Barbiere di Sevilla
DYEAR=1972
DGENRE=Opera
TTITLE0=Sinfonia
TTITLE1=Ecco, ridente in cielo - Ehi, Fiorello
TTITLE2=Largo al factotum
TTITLE3=Una voce poco fa
TTITLE4=La calunnia e un venticello
TTITLE5=A un dottor della mia sorte
TTITLE6=Pace e gioia
TTITLE7=Contro un cor
TTITLE8=Temporale
TTITLE9=Ah! qual colpo inaspettato
TTITLE10=Di si felice innesto
EXTD=
EXTT0=
EXTT1=
EXTT2=
EXTT3=
EXTT4=
EXTT5=
EXTT6=
EXTT7=
EXTT8=
EXTT9=
EXTT10=
PLAYORDER=
